<svg viewBox="0 0 25 24" fill="none" xmlns="http://www.w3.org/2000/svg" height="24"
    width="24"
    class="box-content block size-[14px] !text-[14px] text-black lg:size-6 lg:!text-[24px]">
    <rect x="0.5" width="24" height="24"></rect>
    <path
        d="M21.5255 11.05V19C21.5255 19.55 21.3296 20.0208 20.938 20.4125C20.5463 20.8042 20.0755 21 19.5255 21H5.52545C4.97545 21 4.50462 20.8042 4.11295 20.4125C3.72129 20.0208 3.52545 19.55 3.52545 19V11.05C3.14212 10.7 2.84629 10.25 2.63795 9.7C2.42962 9.15 2.42545 8.55 2.62545 7.9L3.67545 4.5C3.80879 4.06667 4.04629 3.70833 4.38795 3.425C4.72962 3.14167 5.12545 3 5.57545 3H19.4755C19.9255 3 20.3171 3.1375 20.6505 3.4125C20.9838 3.6875 21.2255 4.05 21.3755 4.5L22.4255 7.9C22.6255 8.55 22.6213 9.14167 22.413 9.675C22.2046 10.2083 21.9088 10.6667 21.5255 11.05ZM14.7255 10C15.1755 10 15.5171 9.84583 15.7505 9.5375C15.9838 9.22917 16.0755 8.88333 16.0255 8.5L15.4755 5H13.5255V8.7C13.5255 9.05 13.6421 9.35417 13.8755 9.6125C14.1088 9.87083 14.3921 10 14.7255 10ZM10.2255 10C10.6088 10 10.9213 9.87083 11.163 9.6125C11.4046 9.35417 11.5255 9.05 11.5255 8.7V5H9.57545L9.02545 8.5C8.95879 8.9 9.04629 9.25 9.28795 9.55C9.52962 9.85 9.84212 10 10.2255 10ZM5.77545 10C6.07545 10 6.33795 9.89167 6.56295 9.675C6.78795 9.45833 6.92545 9.18333 6.97545 8.85L7.52545 5H5.57545L4.57545 8.35C4.47545 8.68333 4.52962 9.04167 4.73795 9.425C4.94629 9.80833 5.29212 10 5.77545 10ZM19.2755 10C19.7588 10 20.1088 9.80833 20.3255 9.425C20.5421 9.04167 20.5921 8.68333 20.4755 8.35L19.4255 5H17.5255L18.0755 8.85C18.1255 9.18333 18.263 9.45833 18.488 9.675C18.713 9.89167 18.9755 10 19.2755 10ZM5.52545 19H19.5255V11.95C19.4421 11.9833 19.388 12 19.363 12H19.2755C18.8255 12 18.4296 11.925 18.088 11.775C17.7463 11.625 17.4088 11.3833 17.0755 11.05C16.7755 11.35 16.4338 11.5833 16.0505 11.75C15.6671 11.9167 15.2588 12 14.8255 12C14.3755 12 13.9546 11.9167 13.563 11.75C13.1713 11.5833 12.8255 11.35 12.5255 11.05C12.2421 11.35 11.913 11.5833 11.538 11.75C11.163 11.9167 10.7588 12 10.3255 12C9.84212 12 9.40462 11.9167 9.01295 11.75C8.62129 11.5833 8.27545 11.35 7.97545 11.05C7.62545 11.4 7.27962 11.6458 6.93795 11.7875C6.59629 11.9292 6.20879 12 5.77545 12H5.66295C5.62129 12 5.57545 11.9833 5.52545 11.95V19Z"
        fill="currentColor"></path>
</svg>