<svg viewBox="0 0 24 24" fill="none" xmlns="http://www.w3.org/2000/svg" height="24"
    width="24"
    class="box-content block size-[14px] !text-[14px] text-black lg:size-6 lg:!text-[24px]">
    <rect width="24" height="24"></rect>
    <path
        d="M10.275 12C9.80833 12 9.425 11.825 9.125 11.475C8.825 11.125 8.71667 10.7167 8.8 10.25L9.1 8.45C9.23333 7.73333 9.57083 7.14583 10.1125 6.6875C10.6542 6.22917 11.2833 6 12 6C12.7333 6 13.3708 6.22917 13.9125 6.6875C14.4542 7.14583 14.7917 7.73333 14.925 8.45L15.225 10.25C15.3083 10.7167 15.2 11.125 14.9 11.475C14.6 11.825 14.2167 12 13.75 12H10.275ZM10.875 10H13.15L12.95 8.775C12.9167 8.54167 12.8083 8.35417 12.625 8.2125C12.4417 8.07083 12.2333 8 12 8C11.7667 8 11.5625 8.07083 11.3875 8.2125C11.2125 8.35417 11.1083 8.54167 11.075 8.775L10.875 10ZM3.1 12.975C2.71667 12.9917 2.3875 12.9167 2.1125 12.75C1.8375 12.5833 1.65833 12.325 1.575 11.975C1.54167 11.825 1.53333 11.675 1.55 11.525C1.56667 11.375 1.60833 11.2333 1.675 11.1C1.675 11.1167 1.66667 11.0833 1.65 11C1.61667 10.9667 1.53333 10.7667 1.4 10.4C1.36667 10.2 1.39167 10.0083 1.475 9.825C1.55833 9.64167 1.66667 9.48333 1.8 9.35L1.85 9.3C1.88333 8.98333 2.0125 8.71667 2.2375 8.5C2.4625 8.28333 2.74167 8.175 3.075 8.175C3.125 8.175 3.28333 8.20833 3.55 8.275L3.625 8.25C3.70833 8.16667 3.81667 8.10417 3.95 8.0625C4.08333 8.02083 4.225 8 4.375 8C4.55833 8 4.72083 8.02917 4.8625 8.0875C5.00417 8.14583 5.11667 8.23333 5.2 8.35C5.21667 8.35 5.22917 8.35417 5.2375 8.3625C5.24583 8.37083 5.25833 8.375 5.275 8.375C5.50833 8.39167 5.7125 8.4625 5.8875 8.5875C6.0625 8.7125 6.19167 8.88333 6.275 9.1C6.30833 9.21667 6.32083 9.32917 6.3125 9.4375C6.30417 9.54583 6.28333 9.65 6.25 9.75C6.25 9.76667 6.25833 9.8 6.275 9.85C6.39167 9.96667 6.48333 10.0958 6.55 10.2375C6.61667 10.3792 6.65 10.525 6.65 10.675C6.65 10.7417 6.6 10.9167 6.5 11.2C6.48333 11.2333 6.48333 11.2667 6.5 11.3L6.55 11.7C6.55 12.05 6.40417 12.35 6.1125 12.6C5.82083 12.85 5.46667 12.975 5.05 12.975H3.1ZM20 13C19.45 13 18.9792 12.8042 18.5875 12.4125C18.1958 12.0208 18 11.55 18 11C18 10.8 18.0292 10.6125 18.0875 10.4375C18.1458 10.2625 18.225 10.0917 18.325 9.925L17.625 9.3C17.4583 9.16667 17.4292 9 17.5375 8.8C17.6458 8.6 17.8 8.5 18 8.5H20C20.55 8.5 21.0208 8.69583 21.4125 9.0875C21.8042 9.47917 22 9.95 22 10.5V11C22 11.55 21.8042 12.0208 21.4125 12.4125C21.0208 12.8042 20.55 13 20 13ZM0 18V16.425C0 15.6917 0.370833 15.1042 1.1125 14.6625C1.85417 14.2208 2.81667 14 4 14C4.21667 14 4.425 14.0042 4.625 14.0125C4.825 14.0208 5.01667 14.0417 5.2 14.075C4.96667 14.4083 4.79167 14.7667 4.675 15.15C4.55833 15.5333 4.5 15.9417 4.5 16.375V18H0ZM6 18V16.375C6 15.2917 6.55417 14.4167 7.6625 13.75C8.77083 13.0833 10.2167 12.75 12 12.75C13.8 12.75 15.25 13.0833 16.35 13.75C17.45 14.4167 18 15.2917 18 16.375V18H6ZM20 14C21.2 14 22.1667 14.2208 22.9 14.6625C23.6333 15.1042 24 15.6917 24 16.425V18H19.5V16.375C19.5 15.9417 19.4458 15.5333 19.3375 15.15C19.2292 14.7667 19.0667 14.4083 18.85 14.075C19.0333 14.0417 19.2208 14.0208 19.4125 14.0125C19.6042 14.0042 19.8 14 20 14ZM12 14.75C11.05 14.75 10.2 14.875 9.45 15.125C8.7 15.375 8.25833 15.6667 8.125 16H15.9C15.75 15.6667 15.3042 15.375 14.5625 15.125C13.8208 14.875 12.9667 14.75 12 14.75Z"
        fill="currentColor"></path>
</svg>