<svg xmlns="http://www.w3.org/2000/svg"
    fill="none" viewBox="0 0 28 29" height="24" width="24"
    class="box-content block size-[14px] !text-[14px] text-black lg:size-6 lg:!text-[24px]">
    <path d="M0 .083h28v28H0z"></path>
    <path fill="currentColor"
        d="M7 25.75c-.972 0-1.799-.34-2.48-1.02-.68-.681-1.02-1.508-1.02-2.48v-3.5H7V2.417l1.75 1.75 1.75-1.75 1.75 1.75L14 2.417l1.75 1.75 1.75-1.75 1.75 1.75L21 2.417l1.75 1.75 1.75-1.75V22.25c0 .973-.34 1.799-1.02 2.48-.681.68-1.508 1.02-2.48 1.02H7Zm14-2.333c.33 0 .608-.112.831-.335.224-.224.336-.501.336-.832V5.917H9.333V18.75h10.5v3.5c0 .33.112.608.336.832.223.223.5.335.831.335ZM10.5 10.584V8.25h7v2.334h-7Zm0 3.5V11.75h7v2.334h-7Zm9.333-3.5c-.33 0-.607-.112-.83-.336a1.129 1.129 0 0 1-.336-.831c0-.33.111-.608.335-.831.224-.224.5-.336.831-.336.33 0 .608.112.832.336.223.223.335.5.335.831 0 .33-.112.608-.335.831-.224.224-.501.336-.832.336Zm0 3.5c-.33 0-.607-.112-.83-.336a1.129 1.129 0 0 1-.336-.831c0-.33.111-.608.335-.831.224-.224.5-.336.831-.336.33 0 .608.112.832.336.223.223.335.5.335.831 0 .33-.112.608-.335.831-.224.224-.501.336-.832.336ZM7 23.417h10.5v-2.333H5.833v1.166c0 .33.112.608.336.832.223.223.5.335.831.335Z">
    </path>
</svg>