<svg viewBox="0 0 24 24" fill="none" xmlns="http://www.w3.org/2000/svg" height="24"
    width="24"
    class="box-content block size-[14px] !text-[14px] text-black lg:size-6 lg:!text-[24px]">
    <path
        d="M11 17V16H13V17H11ZM11 15.5V14.725C10.6833 14.5417 10.4375 14.2958 10.2625 13.9875C10.0875 13.6792 10 13.35 10 13C10 12.45 10.1958 11.9792 10.5875 11.5875C10.9792 11.1958 11.45 11 12 11C12.55 11 13.0208 11.1958 13.4125 11.5875C13.8042 11.9792 14 12.45 14 13C14 13.35 13.9125 13.6792 13.7375 13.9875C13.5625 14.2958 13.3167 14.5417 13 14.725V15.5H11ZM16 15.95L14.95 14.875C15.1333 14.5917 15.2708 14.2917 15.3625 13.975C15.4542 13.6583 15.5 13.3333 15.5 13C15.5 12.6667 15.4542 12.3417 15.3625 12.025C15.2708 11.7083 15.1333 11.4083 14.95 11.125L16 10.05C16.3333 10.4833 16.5833 10.95 16.75 11.45C16.9167 11.95 17 12.4667 17 13C17 13.5333 16.9167 14.05 16.75 14.55C16.5833 15.05 16.3333 15.5167 16 15.95ZM8 15.95C7.66667 15.5167 7.41667 15.05 7.25 14.55C7.08333 14.05 7 13.5333 7 13C7 11.6167 7.4875 10.4375 8.4625 9.4625C9.4375 8.4875 10.6167 8 12 8V6.75L14.25 8.75L12 10.75V9.5C11.0333 9.5 10.2083 9.84167 9.525 10.525C8.84167 11.2083 8.5 12.0333 8.5 13C8.5 13.3333 8.54583 13.6583 8.6375 13.975C8.72917 14.2917 8.86667 14.5917 9.05 14.875L8 15.95ZM6 23C5.45 23 4.97917 22.8042 4.5875 22.4125C4.19583 22.0208 4 21.55 4 21V3C4 2.45 4.19583 1.97917 4.5875 1.5875C4.97917 1.19583 5.45 1 6 1H18C18.55 1 19.0208 1.19583 19.4125 1.5875C19.8042 1.97917 20 2.45 20 3V21C20 21.55 19.8042 22.0208 19.4125 22.4125C19.0208 22.8042 18.55 23 18 23H6ZM6 18H18V6H6V18ZM6 20V21H18V20H6ZM6 4H18V3H6V4Z"
        fill="currentColor"></path>
</svg>