<svg xmlns="http://www.w3.org/2000/svg" viewBox="0 0 2759 2759">
    <path fill="#fff"
        d="M1365.51 0h29.99c2.93.4 5.86 1.11 8.79 1.15 50.32.79 100.43 4.28 150.38 10.59 68.81 8.69 136.61 22.26 203.24 41.43 233.46 67.16 435.34 187.56 605.99 360.37 237.81 240.82 387.94 576.88 393.52 929.22.11 6.92 1.04 13.84 1.59 20.75v31.99c-.56 7.58-1.56 15.16-1.6 22.75-.32 68.8-8.11 136.84-20.08 204.49-23.58 133.36-66.22 260.34-127.64 381.01-159.02 312.4-430.45 552.67-759.75 672.24-124.05 45.04-252.03 71.49-383.81 79.38-12.91.77-25.76 2.41-38.64 3.64h-93.97c-3.25-.55-6.48-1.35-9.75-1.6-26.89-2.11-53.82-3.83-80.69-6.23-62.45-5.59-124.15-16.04-185.02-30.9-256.49-62.61-477.43-188.13-662.67-376.19-112.36-114.07-201.69-244.22-268.6-389.67-49.94-108.55-85.03-221.74-105.17-339.56-9.04-52.91-15.2-106.11-17.98-159.72-.51-9.92-2.38-19.76-3.62-29.64-.02-30.67-.02-61.33-.02-91.98 1.22-9.54 3.06-19.04 3.55-28.62 3.71-71.96 13.17-143.13 28.17-213.59 36.61-171.98 103.61-331.23 201.59-477.15C371.68 408.1 552.27 249.74 775.14 140.39 954.02 52.62 1143.38 6.4 1342.72 1.61c7.6-.18 15.19-1.06 22.79-1.61Zm195.72 1371.53c0-68.3-.26-136.59.2-204.89.1-14.68-8.53-23.61-23.12-23.3-30.3.64-60.64.77-90.94-.02-18.38-.48-26.75 6.53-26.59 26.82.59 75.62.23 151.25.23 226.87 0 2.67.1 5.34-.03 7.99-.58 11.81-7.12 18.38-18.93 18.7-8.66.24-17.36-.43-25.98.17-19.21 1.34-25.72-8.01-25.19-24.63.74-23.3.19-46.63.19-69.96 0-14.33.23-28.66-.09-42.97-.28-12.75-7.23-19.5-19.94-20.16-2.66-.14-5.33-.04-7.99-.04-13.33 0-26.66.17-39.98-.07-13.08-.23-19.31-6.71-19.71-19.89-.08-2.66-.03-5.33-.03-8 0-23.99-.51-47.99.19-71.95.43-14.74-9.24-22.96-22.53-22.86-60.96.44-121.93.47-182.9 0-14.53-.11-22.84 9.14-22.8 22.55.33 136.92.19 273.85.22 410.77 0 15.99 6.5 22.54 22.36 22.59 25.32.08 50.64.03 75.96.02 7.66 0 15.34.24 22.98-.08 11.5-.48 18.31-7.51 18.85-19.04.14-2.99.04-6 .04-8.99v-225.88c0-2.67-.1-5.34.04-7.99.56-10.79 6.72-17.67 17.34-18.13 11.64-.51 23.33-.51 34.96-.04 10.82.44 16.98 7.16 17.49 17.89.13 2.66.04 5.33.04 7.99 0 36.31-.05 72.63.03 108.94.04 15.97 6.46 22.3 22.5 22.4 14.66.1 29.32-.18 43.97.1 14.84.28 21.19 6.86 21.27 21.64.1 17.99.02 35.98.03 53.97 0 9.33-.18 18.66.06 27.98.3 11.56 7.2 18.48 18.68 19.2 1.66.1 3.33.04 5 .04h179.9c2.33 0 4.68.13 6.99-.13 9.8-1.08 16.32-7.82 17.15-17.73.22-2.65.07-5.33.07-7.99v-201.89Zm853.48 227.74c42.31 0 84.63.05 126.94-.03 14.96-.03 21.8-6.54 21.83-21 .11-44.65.12-89.29-.01-133.94-.04-13.41-6.93-20.06-20.4-20.51-2.66-.09-5.33-.02-8-.02-76.63 0-153.26.02-229.89-.03-15.64 0-21.8-6.2-21.86-21.74-.08-18.99.59-38.01-.19-56.97-.8-19.44 6.77-26.51 26.8-26.37 75.63.52 151.26.21 226.89.19 3.66 0 7.37.15 10.97-.39 9.12-1.36 15.47-7.6 15.52-16.78.26-46.97.26-93.95 0-140.93-.05-9.38-7.13-16.03-16.45-17.09-2.63-.3-5.32-.14-7.99-.14h-247.88c-2 0-4-.07-6 .03-11.58.55-18.48 7.21-19.31 18.71-.19 2.65-.06 5.33-.06 7.99 0 19.66.16 39.32-.09 58.97-.16 12.48-6.66 18.87-19.14 19.61-2.32.14-4.66.04-7 .04h-96.95c-5.33 0-10.67-.17-15.99.08-10.82.52-17.24 6.69-18.27 17.36-.22 2.31-.13 4.66-.13 6.99 0 65.3-.02 130.6.03 195.91 0 3.64.04 7.38.8 10.91 1.67 7.7 7.55 12.71 15.36 13.49 2.64.26 5.33.14 7.99.14 35.98 0 71.97 0 107.95.02 3.32 0 6.71-.1 9.96.47 9.17 1.62 14.64 7.8 15.35 17.05.23 2.98.12 5.99.12 8.99.01 19.32-.15 38.65.07 57.97.16 13.89 7.21 20.67 21.09 20.98 2.33.05 4.66.01 7 .01h120.94Zm-345.33-332.23c0-33.65.06-67.3-.02-100.95-.04-15.91-6.64-22.52-22.45-22.54-43.31-.06-86.62-.05-129.93 0-16.54.02-22.8 6.34-22.84 23.08-.07 32.32-.02 64.63-.02 96.95 0 16.32-.38 32.66.1 48.97.47 15.99-6.99 24.28-23.27 23.71-20.3-.72-40.64-.08-60.96-.21-14.6-.09-20.67-6.18-20.82-20.56-.08-7.33-.02-14.66-.02-21.99v-121.93c0-2 .03-4 0-6-.26-15.12-7-21.98-22.1-22.01-43.64-.08-87.29-.03-130.93-.02-2 0-4.02-.08-5.99.18-8.5 1.13-14.66 6.96-16.17 15.4-.41 2.27-.33 4.64-.33 6.97-.01 66.96-.01 133.93 0 200.89 0 2-.17 4.05.22 5.98 1.57 7.83 5.89 13.43 13.94 15.21 3.53.78 7.25.91 10.89.92 29.98.07 59.97.04 89.95.04 3 0 6.01-.13 8.99.15 8.69.82 14.77 6.6 15.84 15.24.45 3.62.33 7.31.33 10.98.02 52.64.01 105.28.02 157.92 0 3-.18 6.03.18 8.99 1.14 9.36 7.67 15.7 17.07 16.74 1.98.22 3.99.12 5.99.12h128.93c2 0 4.01.1 5.99-.11 9.4-1.02 15.95-7.34 17.08-16.72.4-3.29.2-6.65.2-9.98.01-54.3-.04-108.61.04-162.91.02-13.81 6.4-20.27 20.09-20.36 21.65-.15 43.31-.04 64.96-.05 11.66 0 23.33.25 34.98-.09 12.75-.37 19.55-7.44 20.02-20.06.09-2.33.03-4.66.03-7v-94.95Zm-428.43 1328.07c-8.02-145.47-15.96-289.59-23.89-433.42-8.79 0-16.11-.33-23.39.05-58.87 3.12-117.73 6.4-176.59 9.58-22.37 1.21-44.38 4.2-65.6 11.81-56.06 20.12-93.32 67.05-88.24 131.01 1.92 24.15 10.99 45.08 28.22 62.29 12.48 12.47 27.39 21.02 43.87 26.99 3.28 1.19 6.52 2.46 10.54 3.97-7.44 5.55-14.12 9.97-20.15 15.14-27.16 23.31-38.84 52.5-32.68 88.2 7.15 41.49 31.89 68.58 69.92 84.35 24.43 10.13 50.18 12.94 76.4 11.54 60.53-3.23 121.05-6.61 181.57-9.97 6.27-.35 12.53-.97 20.02-1.56ZM163.55 1427.12c2.13 17.49 2.98 35.25 6.62 52.42 16.28 76.79 60.96 129.32 136.62 152.4 64.39 19.64 128.6 15.8 190.47-10.76 58.46-25.1 95.84-69.45 111.62-131.26 9.73-38.11 9.64-76.64.82-114.84-17.69-76.61-63.76-127.78-139.69-149.63-60.44-17.39-120.78-13.85-179.4 8.73-47.93 18.46-83.97 50.82-106.04 97.74-14.14 30.07-19.73 62.01-21.02 95.2Zm1655.18 715.29c2.55 16.06 3.46 32.6 7.92 48.11 21.98 76.5 68.48 134.17 138.69 171.22 52.81 27.87 108.04 28.84 163 5.28 44.55-19.09 80.76-49.02 107.95-89.12 35.36-52.14 43.76-109.1 23.9-168.68-22.46-67.39-65.42-119.48-127.2-154.61-55.67-31.65-114.02-34.34-172.79-8.63-45.34 19.84-81.74 51-108.92 92.46-20.59 31.41-31.07 66.06-32.56 103.95ZM1156.3 299.54c-.53-2.37-.59-3.41-.99-4.29-24.7-54.46-69.6-87.71-134.48-84.05-38.65 2.18-74.2 14.74-108.28 32.17-20.31 10.38-38.84 23.31-54.5 40.02-27.38 29.24-40.51 63.31-32.28 103.39 10.39 50.55 41.05 85.21 95.94 93.37 29.96 4.46 59.78 1.94 89.62-1.21 25.48-2.69 50.97-5.48 76.51-7.5 12.95-1.03 26-.17 38.4 4.61 18.71 7.2 28.3 25.61 23.73 45.17-3.28 14.04-11.88 24.42-22.87 32.99-18.48 14.41-39.64 23.01-62.48 27.51-41.43 8.16-72.72-8.3-89.96-42.53-.7-1.38-1.82-2.55-3.12-4.34-28.92 11.42-57.47 22.68-86.36 34.09 6.58 15.55 14.31 28.68 23.67 40.86 28.49 37.08 66.28 55.47 112.93 55.99 26.98.3 52.93-5.33 78.21-14.16 38.09-13.31 73.44-31.39 102.19-60.55 43.39-44.01 51.11-102.13 20.64-155.86-13.76-24.27-33.94-40.72-60.5-49.2-20.88-6.67-42.48-8.82-64.16-7.18-25.54 1.94-50.98 5.24-76.42 8.25-20.5 2.42-40.92 6.15-61.64 4.89-8.2-.5-16.69-1.62-24.37-4.36-16.08-5.73-24.16-21.89-20.74-38.59 2.69-13.1 10.34-23 20.43-31.07 19.55-15.65 42.09-24.38 67.01-25.59 28.6-1.39 51.12 9.91 66.06 34.96.98 1.65 2.19 3.16 3.66 5.27 28.14-11.05 55.92-21.96 84.15-33.06ZM481.41 542.21c-16.94 25.1-33.26 49.3-49.93 74.01 5.15 3.53 9.49 6.54 13.87 9.5 71.55 48.19 143.09 96.37 214.66 144.53 12.26 8.25 23.42 17.67 31.76 30.01 11.29 16.69 16.34 34.91 12.29 54.99-6.5 32.25-23.66 57.67-50.74 76.06-14.85 10.08-31.63 13.38-49.58 10.83-16.93-2.4-31.72-9.62-45.67-19.02L340.93 776.9c-3.82-2.57-7.68-5.1-12.22-8.11-16.72 24.89-33.02 49.14-49.7 73.98 3.14 2.28 5.73 4.29 8.44 6.11 69.3 46.75 138.54 93.6 208 140.11 11.86 7.94 24.16 15.59 37.13 21.42 60.48 27.19 117.59 20.83 169.62-20.53 36.13-28.72 61.18-65.88 74.65-110 16.16-52.91 7.94-102.08-26.52-146.1-12.85-16.41-28.43-29.9-45.66-41.52-71.53-48.21-143.06-96.42-214.6-144.62-2.44-1.65-4.99-3.15-8.67-5.46Zm123.38 1793.08c28.75 16.98 55.86 32.99 83.1 49.07 85.07-80.5 169.28-160.18 253.48-239.86.53.41 1.05.82 1.58 1.23-28.24 112.84-56.48 225.68-84.62 338.09 12.99 9.9 77.99 47.6 85.41 49.5 34.1-147.42 68.2-294.82 102.41-442.68-34.02-20.19-67.41-40.01-101-59.95-113.45 101.53-226.3 202.52-340.35 304.58Zm1327.98-1545.9c2.75-3.16 4.75-5.33 6.61-7.62 30.82-38.03 61.69-76.01 92.33-114.18 4.32-5.38 9.19-9.12 15.63-11.67 88.72-35.2 177.37-70.59 266.03-105.96 2.99-1.19 5.89-2.61 10.1-4.5-27.85-22.58-54.62-44.27-81.31-65.9-59.01 27.11-117.19 53.84-177.25 81.43 13.6-65.47 26.76-128.79 39.84-191.78-28.32-22.89-55.63-44.97-83.73-67.69-.89 2.67-1.45 3.82-1.65 5.03-6.75 39.35-13.45 78.7-20.2 118.05-9.72 56.73-19.57 113.43-29.09 170.2-1.04 6.2-3.41 11.16-7.31 15.94-24 29.41-47.85 58.94-71.74 88.44-8.99 11.1-17.96 22.23-27.62 34.17 23.1 18.66 45.81 37.02 69.34 56.02ZM1499.22 145.9c-27.75 142.85-55.32 284.83-83.13 428 100.59 19.54 200.3 38.9 300.65 58.4 5.1-26.41 9.94-51.46 14.97-77.52-71.2-13.87-141.56-27.59-212.49-41.41 22.79-117.31 45.36-233.46 68.06-350.33-29.56-5.75-57.91-11.27-88.07-17.13ZM383.23 2069.74c123.35-77.61 245.79-154.64 368.75-232-16.28-25.75-31.85-50.38-47.84-75.67-123.48 77.69-245.91 154.71-368.73 231.99 16.14 25.53 31.59 49.99 47.83 75.69Zm1134.66 175.37c-31.23 1.6-62.46 3.18-93.68 4.98-11.96.69-23.8 2.14-35.11 6.71-22.55 9.1-33.97 27.18-32.93 52.74.8 19.65 10.77 33.6 29.38 39.8 9.93 3.31 20.79 5.69 31.15 5.44 33.58-.83 67.12-3.04 100.67-4.78 4.57-.24 9.12-.81 14.78-1.33-1.88-34.66-3.73-68.69-5.6-103.2-3.51-.15-6.1-.48-8.67-.35Zm-23.1 180.08c-22.58 1.3-45.19 2.28-67.74 4.07-29.94 2.38-48.12 24.2-45.11 53.35.31 2.97.87 5.92 1.48 8.85 3.31 15.99 12.52 27.31 28.14 31.97 8.44 2.52 17.65 3.87 26.44 3.58 31.58-1.04 63.13-2.99 94.69-4.65 2.61-.14 5.2-.74 8.74-1.27-1.81-32.47-3.61-64.6-5.48-98.17-14.69.81-27.93 1.51-41.16 2.27ZM369.95 1309.76c-23.67 2.31-46.71 7.29-68.21 17.87-29.98 14.75-50.55 37.46-58.88 70.37-3.89 15.38-4.25 31.07-2.65 46.68 4.35 42.51 25.04 73.76 64.75 91.24 6.67 2.94 13.64 5.38 20.67 7.31 28.7 7.86 57.95 7.96 87.27 5.12 22.33-2.17 44.03-7.14 64.4-16.89 29.76-14.24 50.77-36.2 59.52-68.62 4.48-16.59 5.07-33.49 3.14-50.55-4.83-42.68-26.26-73.25-65.88-90.48-24.28-10.56-50.08-13.09-77.47-13.69-8.04.48-17.38.74-26.66 1.64Zm1636.96 702.69c-38.77 7.18-67.37 29.13-87.71 62.09-12.71 20.6-16.12 43.38-12.49 67.32 2.32 15.31 7.01 29.83 14.1 43.5 20.65 39.78 48.77 73.02 86.9 97.12 17.75 11.21 37.21 17.93 58.37 18.41 29.86.67 55-11.21 77.26-30.19 39.15-33.38 51.79-76.8 33.88-124.96-18.96-50.99-52.85-90.39-99.28-118.88-1.7-1.04-3.47-1.99-5.26-2.87-16.05-7.86-32.82-12.84-50.9-13.03-4.96.48-9.99.58-14.88 1.49Z">
    </path>
</svg>