<svg xmlns="http://www.w3.org/2000/svg" width="81" height="24" fill="none" viewBox="0 0 81 24">
    <path fill="#1A1919"
        d="M78 0H3a3 3 0 0 0-3 3v18a3 3 0 0 0 3 3h75a3 3 0 0 0 3-3V3a3 3 0 0 0-3-3Z">
    </path>
    <path fill="#A6A6A6"
        d="M78 .48A2.52 2.52 0 0 1 80.52 3v18A2.52 2.52 0 0 1 78 23.52H3A2.52 2.52 0 0 1 .48 21V3A2.52 2.52 0 0 1 3 .48h75ZM78 0H3C1.35 0 0 1.35 0 3v18c0 1.65 1.35 3 3 3h75c1.65 0 3-1.35 3-3V3c0-1.65-1.35-3-3-3Z">
    </path>
    <path fill="#fff" stroke="#fff" stroke-miterlimit="10" stroke-width=".12"
        d="M28.452 6.144c0 .504-.15.906-.45 1.2-.336.354-.78.534-1.32.534s-.96-.18-1.326-.54c-.366-.36-.546-.81-.546-1.338s.18-.978.546-1.338c.366-.36.804-.54 1.326-.54.258 0 .504.048.738.15.234.102.42.234.564.402l-.318.318c-.24-.282-.564-.426-.984-.426a1.36 1.36 0 0 0-.984.402c-.276.264-.414.612-.414 1.038 0 .426.138.774.414 1.038.276.264.606.402.984.402.402 0 .738-.132 1.008-.402.174-.174.276-.42.3-.732h-1.308V5.88h1.746c.018.096.024.186.024.27v-.006ZM31.218 4.644H29.58v1.14h1.476v.432H29.58v1.14h1.638V7.8h-2.1V4.2h2.1v.444ZM33.168 7.8h-.462V4.644h-1.008V4.2h2.472v.444h-1.008V7.8h.006ZM35.964 7.8V4.2h.462v3.6h-.462ZM38.478 7.8h-.462V4.644h-1.008V4.2h2.472v.444h-1.008V7.8h.006ZM44.166 7.332c-.354.366-.792.546-1.32.546s-.966-.18-1.32-.546A1.843 1.843 0 0 1 40.998 6c0-.522.174-.972.528-1.332.354-.366.792-.546 1.32-.546s.96.18 1.32.546c.354.366.534.81.534 1.332s-.18.972-.528 1.332h-.006Zm-2.298-.3c.264.27.594.402.978.402s.714-.132.978-.402.402-.612.402-1.032c0-.42-.132-.762-.402-1.032a1.317 1.317 0 0 0-.978-.402c-.384 0-.714.132-.978.402s-.402.612-.402 1.032c0 .42.132.762.402 1.032ZM45.348 7.8V4.2h.564l1.752 2.802h.018l-.018-.696V4.2h.462v3.6h-.48l-1.83-2.934h-.018l.018.696v2.244h-.462l-.006-.006Z">
    </path>
    <path fill="#fff"
        d="M40.884 13.05c-1.41 0-2.562 1.074-2.562 2.55 0 1.476 1.152 2.55 2.562 2.55s2.562-1.08 2.562-2.55c0-1.47-1.152-2.55-2.562-2.55Zm0 4.098c-.774 0-1.44-.636-1.44-1.548s.666-1.548 1.44-1.548c.774 0 1.44.63 1.44 1.548s-.666 1.548-1.44 1.548Zm-5.592-4.098c-1.41 0-2.562 1.074-2.562 2.55 0 1.476 1.152 2.55 2.562 2.55s2.562-1.08 2.562-2.55c0-1.47-1.152-2.55-2.562-2.55Zm0 4.098c-.774 0-1.44-.636-1.44-1.548s.666-1.548 1.44-1.548c.774 0 1.44.63 1.44 1.548s-.666 1.548-1.44 1.548Zm-6.648-3.312v1.08h2.592c-.078.612-.282 1.056-.588 1.362-.378.378-.966.792-1.998.792-1.596 0-2.844-1.284-2.844-2.88 0-1.596 1.248-2.88 2.844-2.88.858 0 1.488.336 1.95.774l.762-.762c-.648-.618-1.506-1.092-2.718-1.092-2.184 0-4.02 1.776-4.02 3.966 0 2.19 1.836 3.966 4.02 3.966 1.182 0 2.07-.384 2.766-1.11.714-.714.936-1.722.936-2.532 0-.252-.018-.486-.06-.678h-3.642v-.006Zm27.186.84c-.21-.57-.858-1.626-2.184-1.626s-2.406 1.032-2.406 2.55c0 1.428 1.08 2.55 2.532 2.55 1.17 0 1.848-.714 2.124-1.128l-.87-.582c-.288.426-.684.708-1.254.708s-.978-.264-1.236-.774l3.414-1.41-.114-.288h-.006Zm-3.48.852c-.03-.984.762-1.488 1.332-1.488.444 0 .822.222.948.54l-2.28.948ZM49.578 18H50.7v-7.5h-1.122V18Zm-1.836-4.38h-.036c-.252-.3-.732-.57-1.344-.57-1.278 0-2.448 1.122-2.448 2.562 0 1.44 1.17 2.544 2.448 2.544.612 0 1.092-.27 1.344-.582h.036v.366c0 .978-.522 1.5-1.362 1.5-.684 0-1.11-.492-1.284-.906l-.978.408c.282.678 1.026 1.506 2.262 1.506 1.314 0 2.424-.774 2.424-2.658v-4.584h-1.062v.414Zm-1.29 3.528c-.774 0-1.422-.648-1.422-1.536s.648-1.554 1.422-1.554c.774 0 1.362.66 1.362 1.554s-.6 1.536-1.362 1.536ZM61.086 10.5h-2.682V18h1.122v-2.844h1.566c1.242 0 2.46-.9 2.46-2.328s-1.218-2.328-2.46-2.328h-.006Zm.024 3.612h-1.59v-2.574h1.59a1.3 1.3 0 0 1 1.314 1.284 1.3 1.3 0 0 1-1.314 1.284v.006Zm6.924-1.074c-.81 0-1.65.36-1.998 1.146l.996.414c.21-.414.606-.552 1.02-.552.576 0 1.17.348 1.176.966v.078a2.506 2.506 0 0 0-1.17-.288c-1.074 0-2.16.588-2.16 1.686 0 1.002.876 1.65 1.86 1.65.75 0 1.17-.336 1.428-.732h.036v.582h1.08v-2.874c0-1.332-.996-2.076-2.28-2.076h.012Zm-.138 4.11c-.366 0-.876-.186-.876-.636 0-.576.636-.798 1.188-.798.492 0 .726.108 1.02.252a1.354 1.354 0 0 1-1.332 1.188v-.006Zm6.348-3.948-1.284 3.252h-.036L71.592 13.2h-1.206l1.998 4.548-1.14 2.526h1.17l3.078-7.074h-1.248ZM64.164 18h1.122v-7.5h-1.122V18Z">
    </path>
    <path fill="#EA4335"
        d="m12.432 11.652-6.39 6.78a1.726 1.726 0 0 0 2.544 1.038l.018-.012 7.188-4.146-3.366-3.666.006.006Z">
    </path>
    <path fill="#FBBC04"
        d="M18.894 10.5h-.006l-3.102-1.806-3.498 3.114 3.51 3.51 3.09-1.782c.54-.294.906-.864.906-1.518s-.36-1.224-.9-1.512V10.5Z">
    </path>
    <path fill="#4285F4"
        d="M6.042 5.568c-.036.144-.06.288-.06.444v11.982c0 .156.018.3.06.444l6.606-6.606-6.606-6.264Z">
    </path>
    <path fill="#34A853"
        d="m12.48 12 3.306-3.306L8.604 4.53a1.733 1.733 0 0 0-2.562 1.032l6.438 6.432V12Z"></path>
</svg>