<svg xmlns="http://www.w3.org/2000/svg" width="81" height="24" fill="none" viewBox="0 0 81 24">
    <g>
        <path fill="#A6A6A6"
            d="M78.118 24H2.838A2.844 2.844 0 0 1 0 21.16V2.836A2.84 2.84 0 0 1 2.837 0h75.281C79.682 0 81 1.272 81 2.836V21.16c0 1.563-1.318 2.84-2.882 2.84Z">
        </path>
        <path fill="#1A1919"
            d="M80.419 21.16a2.298 2.298 0 0 1-2.3 2.299H2.837A2.3 2.3 0 0 1 .534 21.16V2.835a2.304 2.304 0 0 1 2.303-2.3h75.281a2.3 2.3 0 0 1 2.3 2.3l.001 18.326Z">
        </path>
        <path fill="#fff"
            d="M18.078 11.87c-.018-1.933 1.583-2.874 1.656-2.918-.906-1.322-2.312-1.502-2.805-1.517-1.18-.124-2.325.707-2.927.707-.613 0-1.539-.695-2.536-.674-1.284.02-2.486.763-3.144 1.917-1.36 2.354-.346 5.813.957 7.716.651.932 1.413 1.972 2.41 1.935.974-.04 1.338-.621 2.515-.621 1.166 0 1.508.621 2.524.598 1.047-.017 1.705-.936 2.334-1.876.753-1.068 1.056-2.12 1.068-2.174-.025-.008-2.033-.775-2.052-3.092ZM16.157 6.184c.525-.656.884-1.548.784-2.453-.759.033-1.708.525-2.255 1.166-.483.565-.915 1.492-.804 2.363.853.063 1.728-.43 2.275-1.076ZM32.187 18.902h-1.363l-.746-2.345h-2.595l-.71 2.345h-1.327l2.57-7.985h1.588l2.583 7.985Zm-2.334-3.33-.675-2.084c-.072-.213-.206-.715-.403-1.504h-.024c-.079.34-.205.84-.38 1.504l-.662 2.085h2.144ZM38.797 15.953c0 .979-.265 1.753-.794 2.321a2.321 2.321 0 0 1-1.765.758c-.758 0-1.303-.272-1.635-.817h-.024v3.033h-1.28V15.04c0-.616-.016-1.247-.047-1.895h1.125l.072.912h.024c.426-.687 1.074-1.03 1.943-1.03.679 0 1.246.268 1.7.805.454.537.68 1.244.68 2.12Zm-1.303.046c0-.56-.126-1.022-.38-1.386a1.31 1.31 0 0 0-1.113-.568 1.33 1.33 0 0 0-.859.313c-.257.21-.425.485-.503.824-.04.159-.06.288-.06.39v.96c0 .419.129.772.386 1.061.256.289.59.433 1 .433.482 0 .857-.186 1.125-.557.27-.372.404-.861.404-1.47ZM45.42 15.953c0 .979-.266 1.753-.795 2.321a2.319 2.319 0 0 1-1.765.758c-.758 0-1.303-.272-1.634-.817h-.024v3.033h-1.28V15.04c0-.616-.016-1.247-.047-1.895H41l.072.912h.023c.427-.687 1.074-1.03 1.943-1.03.679 0 1.246.268 1.7.805.454.537.681 1.244.681 2.12Zm-1.304.046c0-.56-.127-1.022-.38-1.386a1.308 1.308 0 0 0-1.113-.568c-.316 0-.602.105-.86.313-.256.21-.423.485-.502.824-.039.159-.06.288-.06.39v.96c0 .419.13.772.385 1.061.257.288.59.433 1.002.433.481 0 .856-.186 1.125-.557.268-.372.403-.861.403-1.47ZM52.823 16.663c0 .68-.236 1.232-.71 1.658-.52.467-1.243.7-2.174.7-.86 0-1.548-.166-2.07-.498l.297-1.066c.562.34 1.178.51 1.85.51.48 0 .856-.11 1.125-.327.269-.217.402-.508.402-.872 0-.324-.11-.597-.331-.818-.22-.222-.589-.428-1.102-.618-1.398-.521-2.096-1.285-2.096-2.29 0-.656.244-1.194.734-1.613.489-.42 1.14-.629 1.955-.629.727 0 1.33.127 1.812.38l-.32 1.042a3.144 3.144 0 0 0-1.528-.367c-.45 0-.801.111-1.053.332a.948.948 0 0 0-.32.723c0 .316.122.577.367.782.212.19.6.395 1.161.616.687.277 1.192.6 1.516.97.324.37.485.833.485 1.385ZM57.053 14.105h-1.41V16.9c0 .711.248 1.066.746 1.066.228 0 .418-.02.568-.06l.035.972c-.252.094-.583.142-.994.142-.505 0-.9-.154-1.185-.462-.284-.309-.427-.826-.427-1.552v-2.903h-.84v-.96h.84V12.09l1.256-.379v1.433h1.41v.962ZM63.414 15.976c0 .885-.253 1.612-.758 2.18-.53.585-1.233.876-2.11.876-.844 0-1.517-.28-2.019-.84-.501-.56-.752-1.268-.752-2.12 0-.893.258-1.624.776-2.192.516-.569 1.213-.853 2.09-.853.845 0 1.525.28 2.038.841.49.544.735 1.247.735 2.108Zm-1.327.041c0-.53-.113-.986-.343-1.366-.268-.46-.652-.689-1.148-.689-.515 0-.905.23-1.173.69-.23.38-.344.842-.344 1.39 0 .53.114.986.343 1.365.277.46.664.689 1.162.689.488 0 .872-.234 1.148-.701.236-.387.355-.847.355-1.378ZM67.573 14.27a2.221 2.221 0 0 0-.404-.036c-.45 0-.798.17-1.043.51-.213.3-.32.68-.32 1.137v3.021h-1.278l.012-3.944c0-.664-.016-1.268-.048-1.813h1.114l.047 1.102h.035c.135-.379.349-.684.64-.912.285-.206.593-.309.925-.309.118 0 .225.009.32.024v1.22ZM73.293 15.751a3 3 0 0 1-.047.58H69.41c.015.569.2 1.004.557 1.304.323.268.741.403 1.255.403.568 0 1.087-.091 1.553-.273l.2.888c-.545.238-1.188.356-1.93.356-.893 0-1.594-.263-2.104-.788-.508-.525-.763-1.23-.763-2.114 0-.868.236-1.591.711-2.168.497-.616 1.168-.923 2.013-.923.83 0 1.458.307 1.885.923.338.489.507 1.094.507 1.812Zm-1.22-.332c.009-.379-.074-.707-.248-.983-.221-.356-.562-.534-1.02-.534-.418 0-.758.174-1.018.522-.213.276-.34.608-.378.995h2.664ZM29.43 6.005c0 .707-.213 1.238-.636 1.595-.392.33-.948.495-1.67.495-.357 0-.663-.016-.92-.047V4.189a6.788 6.788 0 0 1 1.084-.081c.687 0 1.204.149 1.554.448.39.338.587.82.587 1.45Zm-.664.018c0-.458-.121-.81-.363-1.054-.243-.244-.597-.366-1.063-.366-.198 0-.367.013-.506.04v2.934c.077.012.218.017.424.017.482 0 .853-.134 1.114-.401.262-.268.394-.658.394-1.17ZM32.944 6.622c0 .435-.124.792-.372 1.071-.26.288-.606.431-1.036.431-.416 0-.746-.137-.993-.413-.246-.276-.369-.623-.369-1.042 0-.438.127-.797.381-1.076.255-.28.597-.42 1.027-.42.416 0 .75.138 1.002.414.24.267.36.613.36 1.035Zm-.652.02a1.28 1.28 0 0 0-.168-.67c-.132-.226-.32-.34-.564-.34a.63.63 0 0 0-.577.34 1.296 1.296 0 0 0-.169.682c0 .261.057.485.17.671.135.226.325.339.57.339.24 0 .428-.115.564-.345.116-.19.174-.415.174-.676ZM37.658 5.232l-.885 2.828h-.576l-.367-1.228a9.192 9.192 0 0 1-.227-.914h-.012a6.69 6.69 0 0 1-.227.914l-.39 1.228h-.582l-.832-2.828h.646l.32 1.344c.077.318.14.621.192.908h.011c.047-.236.124-.538.234-.902l.401-1.35h.512l.385 1.321c.093.323.169.633.227.932h.017c.043-.291.107-.602.192-.932l.343-1.32h.618v-.001ZM40.918 8.06h-.63V6.44c0-.5-.189-.749-.57-.749a.567.567 0 0 0-.453.206.73.73 0 0 0-.175.485v1.677h-.629V6.04c0-.248-.008-.517-.023-.809h.553l.03.443h.017a.908.908 0 0 1 .326-.342c.17-.105.36-.159.57-.159.264 0 .483.085.658.256.217.21.326.522.326.938V8.06ZM42.652 8.06h-.628V3.934h.628V8.06ZM46.354 6.622c0 .435-.124.792-.373 1.071-.26.288-.606.431-1.036.431-.416 0-.746-.137-.992-.413-.247-.276-.37-.623-.37-1.042 0-.438.127-.797.382-1.076.254-.28.596-.42 1.026-.42.416 0 .749.138 1.002.414.24.267.36.613.36 1.035Zm-.653.02a1.28 1.28 0 0 0-.169-.67c-.131-.226-.32-.34-.563-.34a.63.63 0 0 0-.577.34 1.296 1.296 0 0 0-.168.682c0 .261.056.485.168.671.136.226.326.339.57.339.24 0 .429-.115.564-.345.117-.19.175-.415.175-.676ZM49.397 8.06h-.564l-.047-.326h-.018c-.193.26-.468.39-.826.39-.267 0-.483-.086-.645-.256a.803.803 0 0 1-.222-.576c0-.346.144-.61.434-.792.29-.182.696-.271 1.22-.267V6.18c0-.373-.196-.559-.588-.559-.279 0-.525.07-.737.21l-.128-.413c.263-.163.587-.244.97-.244.74 0 1.11.39 1.11 1.17v1.041c0 .283.014.508.041.675Zm-.653-.972v-.436c-.693-.012-1.04.178-1.04.57 0 .147.04.258.12.331a.44.44 0 0 0 .308.11.635.635 0 0 0 .384-.13.536.536 0 0 0 .228-.445ZM52.97 8.06h-.558l-.03-.454h-.017c-.178.345-.482.518-.908.518-.34 0-.625-.134-.85-.401-.225-.268-.337-.615-.337-1.042 0-.458.122-.829.367-1.112.237-.264.527-.396.873-.396.38 0 .645.128.797.384h.011V3.934h.63v3.364c0 .275.007.529.022.762Zm-.651-1.193v-.472a.716.716 0 0 0-.245-.579.618.618 0 0 0-.42-.154.645.645 0 0 0-.554.28c-.134.186-.202.425-.202.716 0 .28.064.506.194.68.136.187.32.28.55.28a.606.606 0 0 0 .496-.233.775.775 0 0 0 .18-.518ZM58.348 6.622c0 .435-.124.792-.373 1.071-.26.288-.604.431-1.036.431-.414 0-.745-.137-.992-.413-.246-.276-.37-.623-.37-1.042 0-.438.127-.797.382-1.076.254-.28.596-.42 1.028-.42.414 0 .748.138 1 .414.24.267.361.613.361 1.035Zm-.652.02a1.28 1.28 0 0 0-.168-.67c-.133-.226-.32-.34-.565-.34a.632.632 0 0 0-.576.34 1.296 1.296 0 0 0-.169.682c0 .261.056.485.169.671.136.226.325.339.57.339.24 0 .43-.115.565-.345.116-.19.174-.415.174-.676ZM61.729 8.06h-.628V6.44c0-.5-.19-.749-.57-.749a.565.565 0 0 0-.454.206.727.727 0 0 0-.175.485v1.677h-.63V6.04c0-.248-.007-.517-.022-.809h.552l.03.442h.017a.918.918 0 0 1 .326-.341c.171-.106.361-.159.57-.159.264 0 .484.085.658.256.218.21.326.522.326.937V8.06ZM65.96 5.702h-.692v1.374c0 .35.123.524.367.524.112 0 .206-.01.28-.03l.016.478c-.124.047-.287.07-.488.07-.249 0-.442-.076-.582-.227-.14-.151-.21-.405-.21-.762V5.702h-.413v-.47h.413v-.519l.616-.186v.704h.693v.471ZM69.29 8.06h-.63V6.452c0-.507-.19-.76-.57-.76-.291 0-.49.146-.6.44a.79.79 0 0 0-.029.226V8.06h-.628V3.934h.628v1.704h.012a.95.95 0 0 1 .85-.465c.26 0 .476.086.647.257.213.213.32.53.32.948V8.06ZM72.723 6.512c0 .113-.008.208-.023.285h-1.886c.008.28.098.493.273.64.16.132.365.198.617.198.28 0 .534-.044.763-.134l.098.437a2.368 2.368 0 0 1-.949.175c-.438 0-.783-.13-1.032-.387-.251-.258-.376-.604-.376-1.039 0-.426.116-.782.35-1.065.243-.302.573-.453.988-.453.407 0 .716.15.925.453.169.24.252.537.252.89Zm-.6-.163a.847.847 0 0 0-.122-.483c-.109-.174-.275-.262-.5-.262a.597.597 0 0 0-.5.256.952.952 0 0 0-.187.49h1.31Z">
        </path>
    </g>
</svg>